<svg width="17" height="17" fill="none" xmlns="http://www.w3.org/2000/svg"><path d="M16.165 5.16c-.036-.824-.17-1.39-.36-1.88a3.781 3.781 0 00-.897-1.376 3.816 3.816 0 00-1.372-.893c-.494-.19-1.057-.324-1.88-.36-.83-.04-1.094-.049-3.2-.049-2.104 0-2.367.01-3.194.045-.824.037-1.39.17-1.881.36-.521.198-.987.5-1.375.897-.394.388-.7.858-.894 1.372-.19.494-.324 1.057-.36 1.881-.04.83-.049 1.094-.049 3.199 0 2.104.01 2.368.046 3.195.036.824.17 1.39.36 1.88.197.522.503.988.897 1.376.388.393.857.7 1.372.893.494.19 1.057.324 1.88.36.827.037 1.091.046 3.196.046 2.105 0 2.368-.01 3.195-.046.824-.036 1.39-.17 1.881-.36a3.966 3.966 0 002.269-2.268c.19-.494.324-1.057.36-1.881.036-.827.045-1.09.045-3.195 0-2.105-.003-2.369-.039-3.196zm-1.396 6.33c-.034.757-.16 1.166-.267 1.439A2.572 2.572 0 0113.03 14.4c-.272.106-.684.233-1.438.266-.818.037-1.063.046-3.132.046s-2.317-.01-3.132-.046c-.757-.033-1.166-.16-1.438-.266a2.386 2.386 0 01-.89-.579 2.41 2.41 0 01-.58-.89c-.105-.273-.232-.685-.266-1.439-.036-.818-.045-1.063-.045-3.131 0-2.07.009-2.317.045-3.132.034-.757.16-1.166.267-1.439.124-.336.32-.642.581-.89.252-.258.554-.455.89-.579.273-.106.685-.233 1.44-.266.817-.037 1.062-.046 3.131-.046 2.072 0 2.317.01 3.132.046.757.033 1.166.16 1.438.266.337.124.642.321.89.579.258.251.455.554.58.89.105.273.232.685.266 1.439.036.818.045 1.063.045 3.132 0 2.068-.009 2.31-.045 3.128z" fill="#000"/><path d="M8.457 4.373a3.984 3.984 0 000 7.965 3.984 3.984 0 000-7.965zm0 6.566a2.584 2.584 0 110-5.168 2.584 2.584 0 010 5.168zm5.07-6.724a.93.93 0 11-1.86 0 .93.93 0 011.86 0z" fill="#000"/></svg>