<svg width="24" height="13" fill="none" xmlns="http://www.w3.org/2000/svg"><path d="M23.1 11.213c-.06-.098-.434-.883-2.232-2.497-1.883-1.69-1.63-1.416.638-4.338 1.38-1.78 1.933-2.866 1.76-3.33-.164-.443-1.18-.327-1.18-.327l-3.377.02s-.25-.033-.437.074c-.181.106-.298.35-.298.35s-.535 1.378-1.249 2.55c-1.505 2.47-2.107 2.6-2.353 2.447-.572-.357-.429-1.437-.429-2.203 0-2.395.375-3.394-.732-3.652-.368-.086-.637-.143-1.577-.152C10.428.143 9.407.159 8.83.432c-.385.182-.682.588-.5.611.223.029.729.132.997.485.347.455.334 1.48.334 1.48s.2 2.818-.465 3.169c-.456.24-1.081-.25-2.423-2.493-.687-1.148-1.207-2.418-1.207-2.418s-.1-.236-.278-.363c-.216-.153-.52-.202-.52-.202L1.557.72s-.482.014-.66.216c-.157.18-.012.553-.012.553S3.4 7.177 6.246 10.044c2.612 2.63 5.576 2.457 5.576 2.457h1.343s.406-.044.613-.26c.19-.198.184-.57.184-.57s-.027-1.743.81-2c.825-.253 1.884 1.684 3.007 2.43.848.564 1.493.44 1.493.44l3.002-.04s1.57-.094.826-1.288z" fill="#000"/></svg>